<mxfile host="app.diagrams.net" agent="Mozilla/5.0 (Windows NT 10.0; Win64; x64) AppleWebKit/537.36 (KHTML, like Gecko) Chrome/129.0.0.0 Safari/537.36" version="24.7.16">
  <diagram name="Page-1" id="sOUCc4kwYudOJliGVJd0">
    <mxGraphModel dx="1500" dy="796" grid="1" gridSize="10" guides="1" tooltips="1" connect="1" arrows="1" fold="1" page="1" pageScale="1" pageWidth="850" pageHeight="1100" math="0" shadow="0">
      <root>
        <mxCell id="0" />
        <mxCell id="1" parent="0" />
        <mxCell id="WE-Ttgl1EKgeqURhwQ6e-3" value="" style="edgeStyle=orthogonalEdgeStyle;rounded=0;orthogonalLoop=1;jettySize=auto;html=1;" edge="1" parent="1" source="WE-Ttgl1EKgeqURhwQ6e-1">
          <mxGeometry relative="1" as="geometry">
            <mxPoint x="410" y="300" as="targetPoint" />
          </mxGeometry>
        </mxCell>
        <mxCell id="WE-Ttgl1EKgeqURhwQ6e-1" value="START" style="strokeWidth=2;html=1;shape=mxgraph.flowchart.terminator;whiteSpace=wrap;" vertex="1" parent="1">
          <mxGeometry x="360" y="160" width="100" height="60" as="geometry" />
        </mxCell>
        <mxCell id="WE-Ttgl1EKgeqURhwQ6e-7" value="" style="edgeStyle=orthogonalEdgeStyle;rounded=0;orthogonalLoop=1;jettySize=auto;html=1;" edge="1" parent="1" source="WE-Ttgl1EKgeqURhwQ6e-4" target="WE-Ttgl1EKgeqURhwQ6e-6">
          <mxGeometry relative="1" as="geometry" />
        </mxCell>
        <mxCell id="WE-Ttgl1EKgeqURhwQ6e-4" value="Mengalami Insomnia" style="rounded=0;whiteSpace=wrap;html=1;" vertex="1" parent="1">
          <mxGeometry x="350" y="300" width="120" height="60" as="geometry" />
        </mxCell>
        <mxCell id="WE-Ttgl1EKgeqURhwQ6e-9" value="" style="edgeStyle=orthogonalEdgeStyle;rounded=0;orthogonalLoop=1;jettySize=auto;html=1;" edge="1" parent="1" source="WE-Ttgl1EKgeqURhwQ6e-6" target="WE-Ttgl1EKgeqURhwQ6e-8">
          <mxGeometry relative="1" as="geometry" />
        </mxCell>
        <mxCell id="WE-Ttgl1EKgeqURhwQ6e-14" value="" style="edgeStyle=orthogonalEdgeStyle;rounded=0;orthogonalLoop=1;jettySize=auto;html=1;" edge="1" parent="1" source="WE-Ttgl1EKgeqURhwQ6e-6" target="WE-Ttgl1EKgeqURhwQ6e-13">
          <mxGeometry relative="1" as="geometry" />
        </mxCell>
        <mxCell id="WE-Ttgl1EKgeqURhwQ6e-6" value="Melakukan Terapi Relaksasi" style="strokeWidth=2;html=1;shape=mxgraph.flowchart.decision;whiteSpace=wrap;" vertex="1" parent="1">
          <mxGeometry x="345" y="440" width="130" height="130" as="geometry" />
        </mxCell>
        <mxCell id="WE-Ttgl1EKgeqURhwQ6e-12" value="" style="edgeStyle=orthogonalEdgeStyle;rounded=0;orthogonalLoop=1;jettySize=auto;html=1;" edge="1" parent="1" source="WE-Ttgl1EKgeqURhwQ6e-8" target="WE-Ttgl1EKgeqURhwQ6e-11">
          <mxGeometry relative="1" as="geometry" />
        </mxCell>
        <mxCell id="WE-Ttgl1EKgeqURhwQ6e-8" value="Tidur Nyenyak" style="shape=parallelogram;perimeter=parallelogramPerimeter;whiteSpace=wrap;html=1;fixedSize=1;" vertex="1" parent="1">
          <mxGeometry x="350" y="640" width="120" height="60" as="geometry" />
        </mxCell>
        <mxCell id="WE-Ttgl1EKgeqURhwQ6e-10" value="Yes" style="text;html=1;align=center;verticalAlign=middle;resizable=0;points=[];autosize=1;strokeColor=none;fillColor=none;" vertex="1" parent="1">
          <mxGeometry x="370" y="578" width="40" height="30" as="geometry" />
        </mxCell>
        <mxCell id="WE-Ttgl1EKgeqURhwQ6e-11" value="End" style="strokeWidth=2;html=1;shape=mxgraph.flowchart.terminator;whiteSpace=wrap;" vertex="1" parent="1">
          <mxGeometry x="360" y="760" width="100" height="60" as="geometry" />
        </mxCell>
        <mxCell id="WE-Ttgl1EKgeqURhwQ6e-17" style="edgeStyle=orthogonalEdgeStyle;rounded=0;orthogonalLoop=1;jettySize=auto;html=1;exitX=0.5;exitY=0;exitDx=0;exitDy=0;entryX=1;entryY=0.5;entryDx=0;entryDy=0;" edge="1" parent="1" source="WE-Ttgl1EKgeqURhwQ6e-13" target="WE-Ttgl1EKgeqURhwQ6e-4">
          <mxGeometry relative="1" as="geometry" />
        </mxCell>
        <mxCell id="WE-Ttgl1EKgeqURhwQ6e-13" value="Tidak Bisa Tidur" style="shape=parallelogram;perimeter=parallelogramPerimeter;whiteSpace=wrap;html=1;fixedSize=1;" vertex="1" parent="1">
          <mxGeometry x="560" y="467.5" width="140" height="75" as="geometry" />
        </mxCell>
        <mxCell id="WE-Ttgl1EKgeqURhwQ6e-15" value="No" style="text;html=1;align=center;verticalAlign=middle;resizable=0;points=[];autosize=1;strokeColor=none;fillColor=none;" vertex="1" parent="1">
          <mxGeometry x="500" y="467.5" width="40" height="30" as="geometry" />
        </mxCell>
      </root>
    </mxGraphModel>
  </diagram>
</mxfile>
